<svg width="18" height="22" viewBox="0 0 18 22" fill="none" xmlns="http://www.w3.org/2000/svg">
<path d="M8.37 21.42C6.93 21.42 5.48 21.24 4.02 20.88C2.56 20.52 1.3 20.01 0.240002 19.35L2.37 14.88C3.23 15.44 4.16 15.87 5.16 16.17C6.18 16.47 7.19 16.62 8.19 16.62C9.19 16.62 10 16.43 10.62 16.05C11.24 15.65 11.55 15.1 11.55 14.4C11.55 13.98 11.43 13.61 11.19 13.29C10.95 12.95 10.54 12.7 9.96 12.54C9.38 12.36 8.55 12.27 7.47 12.27H1.77L2.82 0H16.2V4.59H4.92L7.95 1.98L7.26 10.26L4.23 7.65H8.88C10.96 7.65 12.63 7.95 13.89 8.55C15.15 9.13 16.07 9.92 16.65 10.92C17.23 11.9 17.52 13.01 17.52 14.25C17.52 15.49 17.19 16.66 16.53 17.76C15.89 18.84 14.9 19.72 13.56 20.4C12.22 21.08 10.49 21.42 8.37 21.42Z" fill="#2A2A2A"/>
</svg>
