<svg width="21" height="24" viewBox="0 0 21 24" fill="none" xmlns="http://www.w3.org/2000/svg">
<path fill-rule="evenodd" clip-rule="evenodd" d="M5.4206 22.8509L5.41747 22.8501C3.89566 22.4697 2.5385 21.9244 1.35856 21.2033L0.585373 20.7308L3.63924 14.411L4.59471 15.048C5.34572 15.5486 6.18216 15.9368 7.10952 16.2099C8.06788 16.4861 8.98371 16.62 9.86001 16.62C10.769 16.62 11.3704 16.4487 11.755 16.2052C12.0706 16.0053 12.19 15.7813 12.19 15.43C12.19 15.1292 12.0927 14.9422 11.8557 14.7715L11.8452 14.764L11.8349 14.7562C11.602 14.5791 11.0578 14.39 9.98001 14.39H6.49001V9.24807L6.91279 8.79156L7.49768 8.16L8.95167 6.59H1.96001V0H19.14V5.11193L15.6466 8.88407C16.4605 9.20146 17.1834 9.62825 17.8049 10.1743C19.3911 11.53 20.19 13.3098 20.19 15.43C20.19 16.8224 19.8047 18.1325 19.0525 19.3428C18.2968 20.5915 17.1513 21.5764 15.6825 22.3218L15.6719 22.3272C14.1492 23.0771 12.2532 23.42 10.04 23.42C8.49693 23.42 6.95658 23.2297 5.4206 22.8509ZM18.2 18.82C18.86 17.76 19.19 16.63 19.19 15.43C19.19 13.59 18.51 12.09 17.15 10.93C16.5369 10.3901 15.7898 9.9737 14.9087 9.68083C14.5636 9.56612 14.198 9.47036 13.8118 9.39355L18.14 4.72V1H2.96001V5.59H11.2407L7.49001 9.64V13.39H9.98001C11.12 13.39 11.94 13.58 12.44 13.96C12.94 14.32 13.19 14.81 13.19 15.43C13.19 16.13 12.89 16.67 12.29 17.05C11.69 17.43 10.88 17.62 9.86001 17.62C8.88001 17.62 7.87001 17.47 6.83001 17.17C6.14729 16.9692 5.50488 16.7102 4.90281 16.3929C4.60537 16.2361 4.31777 16.0652 4.04001 15.88L1.88001 20.35C2.96001 21.01 4.22001 21.52 5.66001 21.88C7.12001 22.24 8.58001 22.42 10.04 22.42C12.16 22.42 13.89 22.09 15.23 21.43C16.57 20.75 17.56 19.88 18.2 18.82Z" fill="#D9FF40"/>
</svg>
