<svg width="19" height="22" viewBox="0 0 19 22" fill="none" xmlns="http://www.w3.org/2000/svg">
<path d="M1.90001 22V18.28L9.76001 10.93C10.32 10.41 10.73 9.95002 10.99 9.55002C11.27 9.15002 11.45 8.79002 11.53 8.47002C11.63 8.13002 11.68 7.82002 11.68 7.54002C11.68 6.86002 11.45 6.33002 10.99 5.95002C10.55 5.57002 9.88001 5.38002 8.98001 5.38002C8.22001 5.38002 7.51001 5.55002 6.85001 5.89002C6.19001 6.23002 5.65001 6.74002 5.23001 7.42002L0.820007 4.96002C1.60001 3.64002 2.73001 2.58002 4.21001 1.78002C5.69001 0.980017 7.46001 0.580017 9.52001 0.580017C11.14 0.580017 12.56 0.840017 13.78 1.36002C15 1.88002 15.95 2.62002 16.63 3.58002C17.33 4.54002 17.68 5.67002 17.68 6.97002C17.68 7.65002 17.59 8.33002 17.41 9.01002C17.23 9.67002 16.88 10.38 16.36 11.14C15.86 11.88 15.11 12.71 14.11 13.63L7.87001 19.39L6.88001 17.29H18.25V22H1.90001Z" fill="#2A2A2A"/>
</svg>
