<svg width="19" height="22" viewBox="0 0 19 22" fill="none" xmlns="http://www.w3.org/2000/svg">
<path d="M9.04 21.42C7.58 21.42 6.12001 21.24 4.66001 20.88C3.22 20.52 1.96 20.01 0.880005 19.35L3.04001 14.88C3.88001 15.44 4.81001 15.87 5.83001 16.17C6.87001 16.47 7.88001 16.62 8.86001 16.62C9.88001 16.62 10.69 16.43 11.29 16.05C11.89 15.67 12.19 15.13 12.19 14.43C12.19 13.81 11.94 13.32 11.44 12.96C10.94 12.58 10.12 12.39 8.98001 12.39H6.49001V8.64L12.13 2.55L12.7 4.59H1.96V0H17.14V3.72L11.5 9.81L8.59001 8.16H10.21C12.83 8.16 14.81 8.75 16.15 9.93C17.51 11.09 18.19 12.59 18.19 14.43C18.19 15.63 17.86 16.76 17.2 17.82C16.56 18.88 15.57 19.75 14.23 20.43C12.89 21.09 11.16 21.42 9.04 21.42Z" fill="#2A2A2A"/>
</svg>
