<svg width="21" height="24" viewBox="0 0 21 24" fill="none" xmlns="http://www.w3.org/2000/svg">
<path fill-rule="evenodd" clip-rule="evenodd" d="M0.952837 20.7266L3.95856 14.4188L4.91567 15.042C5.6936 15.5486 6.53554 15.9384 7.44477 16.2114C8.37802 16.4856 9.2922 16.62 10.19 16.62C11.0651 16.62 11.6734 16.454 12.0875 16.2035C12.4331 15.9774 12.55 15.7357 12.55 15.4C12.55 15.1848 12.4934 15.0279 12.39 14.89L12.3813 14.8785L12.373 14.8667C12.3147 14.784 12.148 14.6292 11.6941 14.504L11.6788 14.4998L11.6636 14.4951C11.2266 14.3594 10.5147 14.27 9.47 14.27H2.68077L3.90192 0H19.2V6.59H10.6526L10.5643 7.65H10.88C13.0391 7.65 14.8712 7.95879 16.314 8.64433C17.7188 9.29213 18.811 10.2064 19.5128 11.4145C20.1906 12.5613 20.52 13.8488 20.52 15.25C20.52 16.6769 20.1378 18.0231 19.3888 19.2723C18.6343 20.5443 17.4873 21.5434 16.0125 22.2918C14.4867 23.066 12.5867 23.42 10.37 23.42C8.84582 23.42 7.31546 23.2294 5.78059 22.8509C4.23858 22.4707 2.87689 21.9246 1.71144 21.1989L0.952837 20.7266ZM15.89 9.55C14.63 8.95 12.96 8.65 10.88 8.65H9.4775L9.7325 5.59H18.2V1H4.82L3.77 13.27H9.47C9.68054 13.27 9.88159 13.2734 10.0731 13.2803C10.0804 13.2805 10.0878 13.2808 10.095 13.2811C10.8757 13.3101 11.4974 13.3964 11.96 13.54C12.54 13.7 12.95 13.95 13.19 14.29C13.43 14.61 13.55 14.98 13.55 15.4C13.55 16.1 13.24 16.65 12.62 17.05C12 17.43 11.19 17.62 10.19 17.62C9.19 17.62 8.18 17.47 7.16 17.17C6.48691 16.9681 5.84554 16.7073 5.23588 16.3875C4.93977 16.2323 4.65115 16.0631 4.37 15.88L2.24 20.35C3.3 21.01 4.56 21.52 6.02 21.88C7.48 22.24 8.93 22.42 10.37 22.42C12.49 22.42 14.22 22.08 15.56 21.4C16.9 20.72 17.89 19.84 18.53 18.76C19.19 17.66 19.52 16.49 19.52 15.25C19.52 14.01 19.23 12.9 18.65 11.92C18.07 10.92 17.15 10.13 15.89 9.55Z" fill="#D9FF40"/>
</svg>
