<svg width="21" height="24" viewBox="0 0 21 24" fill="none" xmlns="http://www.w3.org/2000/svg">
<path fill-rule="evenodd" clip-rule="evenodd" d="M1.9 24V18.846L10.0795 11.1972C10.6108 10.7039 10.9548 10.3077 11.1516 10.005L11.1609 9.9906L11.1708 9.97653C11.4112 9.63308 11.5201 9.38632 11.5599 9.22745L11.5648 9.20753L11.5706 9.18782C11.6505 8.91635 11.68 8.70306 11.68 8.53999C11.68 8.1115 11.5494 7.88307 11.3531 7.72095L11.3447 7.71397L11.3364 7.70681C11.1547 7.54988 10.7657 7.37999 9.98 7.37999C9.37541 7.37999 8.82289 7.51369 8.30796 7.77896L7.85 6.88999C8.51 6.54999 9.22 6.37999 9.98 6.37999C10.88 6.37999 11.55 6.56999 11.99 6.94999C12.45 7.32999 12.68 7.85999 12.68 8.53999C12.68 8.81999 12.63 9.12999 12.53 9.46999C12.45 9.78999 12.27 10.15 11.99 10.55C11.73 10.95 11.32 11.41 10.76 11.93L2.9 19.28V23H19.25V18.29H11.145L15.11 14.63C16.11 13.71 16.86 12.88 17.36 12.14C17.88 11.38 18.23 10.67 18.41 10.01C18.59 9.32999 18.68 8.64999 18.68 7.96999C18.68 6.66999 18.33 5.53999 17.63 4.57999C16.95 3.61999 16 2.87999 14.78 2.35999C13.56 1.83999 12.14 1.57999 10.52 1.57999C8.46 1.57999 6.69 1.97999 5.21 2.77999C4.05449 3.40459 3.11232 4.18768 2.38351 5.12926C2.17885 5.39367 1.99102 5.67058 1.82 5.95999L6.23 8.41999C6.65 7.73999 7.19 7.22999 7.85 6.88999L8.30796 7.77896C7.82186 8.02938 7.41289 8.40781 7.0808 8.94548L6.57817 9.75926L0.437531 6.33387L0.959077 5.45126C1.84033 3.95991 3.11075 2.77798 4.73449 1.90028C6.38986 1.00548 8.33083 0.579987 10.52 0.579987C12.2457 0.579987 13.8039 0.856901 15.1721 1.44006C16.5379 2.02219 17.6423 2.86963 18.4421 3.99644C19.2759 5.14253 19.68 6.48167 19.68 7.96999C19.68 8.7393 19.5781 9.50527 19.3767 10.2659L19.3748 10.2731C19.1575 11.07 18.7486 11.881 18.1868 12.7025C17.6272 13.5301 16.8172 14.4182 15.7878 15.3653V15.3653L13.7027 17.29H20.25V24H1.9Z" fill="#D9FF40"/>
</svg>
